<svg width="548" height="422" viewBox="0 0 548 422" fill="none" xmlns="http://www.w3.org/2000/svg">
<g clip-path="url(#clip0_262_758)">
<path d="M534.945 331.418C534.703 331.418 534.46 331.395 534.197 331.338C532.816 331.089 531.742 330.138 531.183 328.643C530.509 326.83 530.751 324.542 531.773 323.081C532.564 321.371 534.608 319.57 536.799 318.516C536.357 317.905 535.809 317.429 535.166 317.146C533.691 316.511 531.004 316.387 528.96 317.406C527.896 317.938 527.2 318.686 526.905 319.626C526.81 319.921 526.515 320.079 526.241 319.989C525.968 319.887 525.82 319.57 525.904 319.275C526.284 318.04 527.19 317.044 528.507 316.387C530.54 315.367 533.575 315.254 535.556 316.104C536.483 316.5 537.231 317.202 537.821 318.097C538.201 317.961 538.58 317.848 538.949 317.769C541.183 316.964 543.121 317.01 544.628 317.927C546.251 318.913 547.389 320.906 547.99 323.863C548.053 324.168 547.874 324.474 547.589 324.542C547.305 324.61 547.02 324.418 546.957 324.112C546.42 321.484 545.45 319.739 544.101 318.913C542.858 318.154 541.214 318.142 539.212 318.856C538.928 318.913 538.654 318.992 538.369 319.094C539.465 321.473 539.644 324.701 538.917 327.329C538.19 329.945 536.747 331.418 534.945 331.418ZM537.368 319.49C535.324 320.43 533.396 322.096 532.669 323.67C531.815 324.905 531.626 326.785 532.163 328.223C532.458 329.005 533.08 329.99 534.386 330.228C536.631 330.704 537.59 328.144 537.895 327.011C538.559 324.599 538.369 321.597 537.368 319.49Z" fill="black"/>
<path d="M97.5078 364.141C94.9263 364.141 92.5134 363.043 90.68 361.004C89.8686 360.018 89.2469 358.704 88.8782 357.289C87.5189 357.164 86.2018 356.654 85.0533 355.793C83.0407 354.298 81.6815 351.84 81.3232 349.065C80.9228 345.622 82.0292 343.504 83.7572 340.66C83.9153 340.4 84.2419 340.332 84.4843 340.502C84.7266 340.672 84.8004 341.023 84.6318 341.283C82.9881 343.979 81.9976 345.792 82.3664 348.918C82.6825 351.376 83.8837 353.551 85.6539 354.865C86.5601 355.544 87.5716 355.963 88.6358 356.122C88.4145 354.751 88.4145 353.335 88.6885 352.055C89.1943 349.631 90.5324 347.864 92.5555 346.936C93.7778 346.369 95.0738 346.528 96.0011 347.332C97.0758 348.261 97.5289 349.892 97.2233 351.693C96.686 354.06 94.1887 356.371 91.4175 357.096C90.9328 357.209 90.4587 357.289 89.974 357.311C90.3006 358.433 90.8064 359.452 91.4597 360.245C93.1772 362.148 95.5058 363.133 97.9609 363.009C100.553 362.861 102.966 361.536 104.568 359.339C104.747 359.09 105.084 359.056 105.305 359.248C105.537 359.441 105.569 359.803 105.389 360.041C103.598 362.488 100.901 363.983 98.0031 364.141C97.8345 364.141 97.6659 364.153 97.4973 364.153L97.5078 364.141ZM94.0201 347.717C93.6724 347.717 93.3142 347.797 92.9559 347.966C90.8169 348.952 90.0056 350.855 89.7106 352.293C89.4577 353.517 89.4682 354.887 89.7106 356.179C90.1953 356.179 90.6905 356.111 91.1752 355.986C93.546 355.374 95.7482 353.369 96.1907 351.444C96.4225 350.085 96.1064 348.861 95.3478 348.204C94.9684 347.876 94.5259 347.717 94.0307 347.717H94.0201Z" fill="black"/>
<path d="M101.786 39.5427C101.491 39.5427 101.259 39.2935 101.259 38.9764C101.238 34.1397 102.976 29.3031 105.79 26.3467C107.781 24.2512 110.257 23.1412 112.976 23.1185C115.104 19.5165 119.561 17.3078 123.471 17.9987C125.768 18.4065 127.77 19.7544 129.708 21.057C133.302 23.4697 136.399 25.5538 140.382 21.023C140.582 20.7965 140.92 20.7852 141.13 21.0004C141.341 21.2156 141.352 21.5781 141.151 21.8046C136.578 27.0037 132.806 24.4664 129.15 22.0198C127.296 20.7738 125.378 19.4939 123.292 19.1201C120.036 18.5424 116.232 20.3094 114.219 23.1752C118.423 23.6282 120.573 26.4827 121.184 29.1219C121.753 31.5798 121.079 34.0265 119.572 34.944C118.708 35.465 116.854 35.9181 114.167 33.0184C111.775 30.4358 111.132 27.2642 112.386 24.2739C110.152 24.4325 108.192 25.4066 106.517 27.1623C103.904 29.9148 102.281 34.4456 102.302 38.9764C102.302 39.2935 102.07 39.5427 101.775 39.5427H101.786ZM113.577 24.2626C113.577 24.2626 113.534 24.3419 113.524 24.3758C112.238 27.0717 112.734 29.8468 114.925 32.2255C116.527 33.9585 118.034 34.5815 119.066 33.9585C120.141 33.3015 120.615 31.342 120.173 29.405C119.909 28.2497 118.645 24.5118 113.577 24.2626Z" fill="black"/>
<path d="M534.903 198.314C531.215 198.314 528.338 195.867 527.59 192.084C526.916 188.663 527.948 186.364 528.949 185.05C530.372 183.158 532.679 182.025 535.092 182.025C538.475 182.025 541.309 184.11 542.689 187.598C543.3 189.207 543.206 191.144 542.426 193.047C541.53 195.221 539.844 197.011 538.032 197.725C537.01 198.121 535.956 198.325 534.913 198.325L534.903 198.314ZM535.092 183.147C532.985 183.147 530.993 184.121 529.761 185.752C528.549 187.372 528.148 189.479 528.623 191.846C529.265 195.085 531.731 197.181 534.903 197.181C535.819 197.181 536.757 197 537.663 196.649C539.223 196.037 540.677 194.485 541.457 192.582C542.12 190.962 542.215 189.343 541.709 188.029C540.508 184.982 538.032 183.158 535.092 183.158V183.147Z" fill="#F2AC30"/>
<path d="M7.52321 353.12C3.83532 353.12 0.958757 350.674 0.210641 346.89C-0.463717 343.458 0.568894 341.17 1.5699 339.856C2.99237 337.965 5.29994 336.832 7.71287 336.832C11.0952 336.832 13.9296 338.916 15.2994 342.405C15.9106 344.013 15.8157 345.95 15.036 347.853C14.1404 350.028 12.4545 351.818 10.6421 352.531C9.62004 352.928 8.56636 353.132 7.52321 353.132V353.12ZM7.71287 337.953C5.60551 337.953 3.61404 338.928 2.38123 340.559C1.1695 342.178 0.769094 344.285 1.24325 346.641C1.886 349.881 4.35162 351.976 7.52321 351.976C8.45045 351.976 9.37769 351.795 10.2839 351.444C11.8433 350.832 13.2974 349.28 14.0771 347.377C14.741 345.758 14.8358 344.138 14.33 342.824C13.1288 339.777 10.6527 337.953 7.71287 337.953Z" fill="#70BADB"/>
<path d="M523.333 274.873C521.363 274.873 519.529 273.831 518.434 272.098L507.876 255.379C506.991 253.975 506.674 252.287 506.969 250.622C507.265 248.946 508.15 247.507 509.446 246.556L524.998 235.195C525.978 234.481 527.116 234.107 528.307 234.107C530.277 234.107 532.11 235.149 533.217 236.882L543.775 253.59C545.608 256.489 544.902 260.454 542.205 262.413L526.663 273.763C525.683 274.477 524.534 274.851 523.354 274.851L523.333 274.873ZM528.296 235.24C527.327 235.24 526.389 235.546 525.578 236.135L510.025 247.496C508.961 248.277 508.234 249.467 507.992 250.837C507.749 252.208 508.013 253.601 508.74 254.745L519.298 271.464C520.204 272.891 521.711 273.74 523.333 273.74C524.303 273.74 525.251 273.435 526.052 272.846L541.594 261.496C543.806 259.876 544.386 256.625 542.879 254.235L532.321 237.528C531.415 236.101 529.908 235.24 528.285 235.24H528.296Z" fill="#70BADB"/>
<path d="M60.0071 422C57.8471 422 56.2666 420.154 55.8767 417.186L52.821 393.977C52.5681 392.029 52.9053 390.409 53.7904 389.31C54.9811 387.838 57.0463 387.52 59.3117 388.506L79.5319 397.262C81.5234 398.123 82.7456 399.527 82.9669 401.215C83.1882 402.902 82.3768 404.613 80.6909 406.04L63.5264 420.493C62.3568 421.479 61.1451 422 60.0071 422ZM56.7934 389.061C55.8662 389.061 55.1075 389.401 54.5807 390.046C53.9063 390.885 53.6429 392.221 53.8536 393.818L56.9093 417.027C57.2254 419.429 58.3845 420.867 59.9966 420.867C60.8922 420.867 61.8827 420.425 62.8626 419.599L80.0271 405.145C81.4074 403.979 82.0818 402.642 81.9132 401.373C81.7446 400.105 80.7542 399.017 79.1315 398.304L58.9113 389.548C58.1526 389.219 57.4361 389.05 56.7829 389.05L56.7934 389.061Z" fill="#F2AC30"/>
<path d="M223.834 34.2983C222.886 34.2983 221.874 33.9811 220.821 33.3694L201.717 22.0764C199.831 20.9663 198.777 19.4145 198.746 17.7042C198.714 15.9938 199.705 14.3967 201.549 13.2073L220.188 1.07607C221.284 0.362465 222.348 0 223.349 0C225.762 0 227.353 2.0955 227.417 5.34636L227.87 28.7707C227.901 30.6283 227.448 32.1235 226.542 33.1202C225.836 33.8905 224.898 34.3096 223.824 34.3096L223.834 34.2983ZM223.36 1.1327C222.559 1.1327 221.653 1.44986 220.747 2.03887L202.097 14.1814C200.59 15.1556 199.778 16.4015 199.81 17.6815C199.831 18.9615 200.695 20.1734 202.234 21.0796L221.337 32.3727C223.139 33.4374 224.814 33.4148 225.815 32.316C226.51 31.5458 226.869 30.3338 226.837 28.782L226.384 5.35769C226.331 2.74114 225.183 1.12138 223.37 1.12138L223.36 1.1327Z" fill="#F2C87E"/>
<path d="M139.922 199.86C151.386 195.941 188.022 186.8 207.21 181.579C226.397 176.357 247.334 172.766 250.074 174.397C252.813 176.028 222.404 226.298 208.2 246.211C203.469 250.458 196.989 242.62 196.989 242.62C183.534 260.902 168.329 267.755 165.832 268.412C163.334 269.057 162.091 248.827 161.838 236.741C161.585 224.667 163.229 222.311 155.611 217.485C131.945 202.466 139.922 199.86 139.922 199.86Z" fill="#70BADB"/>
<path d="M165.832 269.51C165.463 269.51 165.115 269.182 165.02 268.695C164.894 268.106 165.168 267.494 165.61 267.335C166.864 266.735 171.406 257.096 174.725 250.05C178.297 242.484 181.668 235.325 183.67 232.697C187.453 227.747 222.32 196.576 237.113 183.459L164.651 221.121C164.219 221.348 163.724 221.065 163.556 220.498C163.387 219.932 163.598 219.286 164.03 219.06L243.783 177.614C244.205 177.399 244.679 177.648 244.868 178.192C245.058 178.735 244.879 179.37 244.479 179.63C242.013 181.341 188.844 229.073 184.882 234.261C183.017 236.707 179.54 244.081 176.179 251.217C170.405 263.462 167.707 268.899 166.063 269.476C165.99 269.499 165.916 269.51 165.842 269.51H165.832Z" fill="black"/>
<path d="M198.485 245.033C198.317 245.033 198.138 244.965 197.99 244.817L197.621 244.466C192.511 239.573 186.147 233.468 184.661 234.464C184.239 234.736 183.734 234.521 183.523 233.966C183.312 233.422 183.481 232.754 183.902 232.482C186.199 230.976 190.762 235.155 198.622 242.676L198.981 243.028C199.36 243.39 199.444 244.081 199.16 244.579C198.991 244.874 198.738 245.033 198.475 245.033H198.485Z" fill="black"/>
<path d="M311.248 83.2538H269.943C262.768 83.2538 257.278 89.8914 257.721 97.9223L258.837 118.322C259.238 125.753 265.033 131.586 271.756 131.473L301.638 130.986C303.198 135.97 304.336 140.818 307.328 140.58C309.467 140.353 310.384 135.494 310.995 130.793C317.264 130.374 322.427 124.631 322.659 117.552L323.333 97.5825C323.597 89.7328 318.202 83.2424 311.258 83.2424L311.248 83.2538Z" fill="white"/>
<path d="M307.117 141.169C304.188 141.169 302.987 137.227 301.585 132.651C301.48 132.288 301.364 131.926 301.248 131.564L271.555 132.039C264.538 132.039 258.722 126.025 258.3 118.345L257.183 97.9449C256.962 93.8219 258.279 89.8008 260.808 86.9237C263.21 84.1939 266.445 82.6874 269.943 82.6874H311.248C314.588 82.6874 317.728 84.1372 320.088 86.7538C322.617 89.5742 323.997 93.5274 323.86 97.6164L323.186 117.586C322.944 124.722 317.833 130.669 311.458 131.337C310.784 136.344 309.804 140.897 307.381 141.158C307.286 141.158 307.202 141.158 307.117 141.158V141.169ZM301.638 130.431C301.859 130.431 302.07 130.589 302.133 130.816C302.291 131.314 302.439 131.813 302.586 132.3C303.882 136.559 305.031 140.217 307.286 140.025C309.288 139.81 310.141 133.217 310.468 130.725C310.5 130.453 310.71 130.25 310.953 130.238C316.99 129.83 321.9 124.258 322.122 117.541L322.796 97.5711C322.923 93.7992 321.658 90.1406 319.329 87.5353C317.18 85.134 314.303 83.8088 311.248 83.8088H269.943C266.751 83.8088 263.779 85.1907 261.577 87.6939C259.248 90.3445 258.026 94.0597 258.237 97.8769L259.354 118.277C259.733 125.243 265.202 130.895 271.555 130.895H271.735L301.617 130.408L301.638 130.431Z" fill="black"/>
<path d="M277.899 107.992C277.899 110.45 276.086 112.444 273.853 112.444C271.619 112.444 269.806 110.45 269.806 107.992C269.806 105.534 271.619 103.529 273.853 103.529C276.086 103.529 277.899 105.523 277.899 107.992Z" fill="#70BADB"/>
<path d="M293.915 107.992C293.915 110.45 292.102 112.444 289.868 112.444C287.635 112.444 285.822 110.45 285.822 107.992C285.822 105.534 287.635 103.529 289.868 103.529C292.102 103.529 293.915 105.523 293.915 107.992Z" fill="#70BADB"/>
<path d="M309.92 107.992C309.92 110.45 308.108 112.444 305.874 112.444C303.64 112.444 301.828 110.45 301.828 107.992C301.828 105.534 303.64 103.529 305.874 103.529C308.108 103.529 309.92 105.523 309.92 107.992Z" fill="#70BADB"/>
<path d="M279.027 279.908C273.554 282.903 271.942 288.488 277.164 300.308C282.387 312.139 284.898 325.533 290.7 328.535C296.504 331.547 306.606 327.36 316.024 323.678C325.443 319.996 337.413 314.657 340.973 313.107C349.354 309.465 351.679 306.472 349.786 298.116C348.671 293.195 336.965 267.7 335.852 264.976C333.064 258.18 329.008 258.842 320.687 261.785C312.708 264.604 284.141 277.109 279.025 279.898L279.027 279.908Z" fill="#F2AC30"/>
<path d="M314.582 302.359C314.542 302.374 314.508 302.392 314.467 302.406C310.418 304.005 305.587 301.317 301.831 298.799C294.889 294.144 279.778 284.968 276.401 283.499C276.103 283.371 275.935 283.006 276.019 282.673C276.099 282.345 276.408 282.182 276.706 282.31C280.13 283.795 295.347 293.034 302.322 297.712C305.863 300.083 310.383 302.625 314.018 301.192C316.606 300.141 318.585 297.159 319.87 292.239C323.41 278.702 329.57 260.948 329.635 260.769C329.747 260.454 330.069 260.325 330.349 260.483C330.638 260.639 330.778 261.026 330.669 261.334C330.607 261.508 324.466 279.216 320.936 292.71C319.551 298.003 317.472 301.157 314.582 302.359Z" fill="black"/>
<path d="M290.682 329.562C290.491 329.642 290.266 329.589 290.095 329.414C289.855 329.167 289.813 328.76 290.008 328.508C291.03 327.174 294.853 316.781 297.651 309.194C299.969 302.907 301.291 299.321 301.693 298.69C301.864 298.412 302.214 298.374 302.474 298.602C302.734 298.829 302.801 299.235 302.628 299.503C302.277 300.061 300.537 304.787 298.698 309.79C294.913 320.076 291.935 328.052 290.891 329.411C290.834 329.481 290.769 329.538 290.688 329.566L290.682 329.562Z" fill="black"/>
<path d="M348.432 306.99C348.264 307.063 348.051 307.025 347.889 306.874C347.318 306.363 341.749 303.113 336.363 299.965C329.252 295.814 321.901 291.524 320.611 290.434C320.354 290.217 320.288 289.821 320.452 289.555C320.613 289.28 320.956 289.243 321.214 289.46C322.417 290.483 330.048 294.939 336.787 298.869C343.646 302.873 347.885 305.356 348.516 305.925C348.767 306.153 348.826 306.545 348.654 306.813C348.602 306.901 348.521 306.96 348.435 307L348.432 306.99Z" fill="black"/>
</g>
<defs>
<clipPath id="clip0_262_758">
<rect width="548" height="422" fill="white"/>
</clipPath>
</defs>
</svg>
